<svg xmlns="http://www.w3.org/2000/svg" xmlns:xlink="http://www.w3.org/1999/xlink" width="112" height="76" viewBox="0 0 112 76"><defs><path id="5mlsa" d="M681.85 560.99v.05c0 16.09-1.58 25.33-4.7 30.6-3.02 5.34-6.28 6.3-12.93 6.75-6.66.38-23.36.61-37.84.61-14.5 0-31.21-.23-37.86-.61-6.64-.45-9.9-1.42-12.94-6.76-3.1-5.27-4.7-14.51-4.7-30.6V561v-.02c0-16.15 1.6-25.33 4.7-30.66 3.04-5.34 6.31-6.31 12.95-6.7 6.64-.43 23.35-.62 37.85-.62 14.48 0 31.18.19 37.83.64 6.65.37 9.92 1.35 12.93 6.68 3.13 5.33 4.71 14.5 4.71 30.67zm-34.67.01l-34.68-20.73v41.46z"/></defs><g><g transform="translate(-570 -523)"><use fill="#ebedee" xlink:href="#5mlsa"/></g></g></svg>